<?xml version="1.0" encoding="UTF-8" standalone="no"?><!DOCTYPE svg PUBLIC "-//W3C//DTD SVG 1.1//EN" "http://www.w3.org/Graphics/SVG/1.1/DTD/svg11.dtd"><svg width="100%" height="100%" viewBox="0 0 218 121" version="1.1" xmlns="http://www.w3.org/2000/svg" xmlns:xlink="http://www.w3.org/1999/xlink" xml:space="preserve" xmlns:serif="http://www.serif.com/" style="fill-rule:evenodd;clip-rule:evenodd;stroke-linecap:round;stroke-linejoin:round;stroke-miterlimit:1.5;"><clipPath id="_clip1"><rect x="5.224" y="29.367" width="206.366" height="45.506"/></clipPath><g clip-path="url(#_clip1)"><ellipse cx="108.407" cy="128.557" rx="103.183" ry="99.19" style="fill:#fff;"/></g><clipPath id="_clip2"><rect x="5.224" y="74.873" width="206.366" height="45.506"/></clipPath><g clip-path="url(#_clip2)"><ellipse cx="108.407" cy="21.19" rx="103.183" ry="99.19" style="fill:#fff;"/></g><path d="M20.777,72.077c29.452,-31.687 58.502,-45.419 87.222,-44.605c30.601,0.867 60.711,13.137 88.038,44.372" style="fill:none;stroke:#000;stroke-width:6.25px;"/><path d="M3.125,55.358l17.652,16.719" style="fill:none;stroke:#000;stroke-width:6.25px;"/><path d="M214.251,55l-17.652,16.719" style="fill:none;stroke:#000;stroke-width:6.25px;"/><path d="M26.628,32.688l15.976,18.327" style="fill:none;stroke:#000;stroke-width:6.25px;"/><path d="M190.748,32.33l-15.976,18.327" style="fill:none;stroke:#000;stroke-width:6.25px;"/><path d="M51.761,17.003l12.473,20.87" style="fill:none;stroke:#000;stroke-width:6.25px;"/><path d="M165.615,16.645l-12.473,20.87" style="fill:none;stroke:#000;stroke-width:6.25px;"/><path d="M79.454,6.138l5.519,23.678" style="fill:none;stroke:#000;stroke-width:6.25px;"/><path d="M137.922,5.781l-5.519,23.678" style="fill:none;stroke:#000;stroke-width:6.25px;"/><path d="M108.407,3.125l0,24.313" style="fill:none;stroke:#000;stroke-width:6.25px;"/><path d="M79.234,47.457c15.566,-16.094 41.27,-16.523 57.364,-0.957c16.094,15.566 16.523,41.27 0.957,57.364c-15.566,16.094 -41.27,16.523 -57.364,0.957c-16.094,-15.566 -16.523,-41.27 -0.957,-57.364Z" style="fill:url(#_Linear3);"/><circle cx="108.407" cy="65.204" r="29.881"/><defs><linearGradient id="_Linear3" x1="0" y1="0" x2="1" y2="0" gradientUnits="userSpaceOnUse" gradientTransform="matrix(56.406484,-58.320779,58.320779,56.406484,80.190772,104.820573)"><stop offset="0" style="stop-color:#ffb37c;stop-opacity:1"/><stop offset="1" style="stop-color:#da4f42;stop-opacity:1"/></linearGradient></defs></svg>